<svg width="2079" height="2079" xmlns="http://www.w3.org/2000/svg" xmlns:xlink="http://www.w3.org/1999/xlink" overflow="hidden"><defs><clipPath id="clip0"><rect x="0" y="0" width="2079" height="2079"/></clipPath></defs><g clip-path="url(#clip0)"><path d="M520 650C520 578.203 578.203 520 650 520 721.797 520 780 578.203 780 650 780 721.797 721.797 780 650 780 578.203 780 520 721.797 520 650Z" fill="#D4D400" fill-rule="evenodd"/><path d="M780 1169C780 1097.2 837.979 1039 909.5 1039 981.021 1039 1039 1097.2 1039 1169 1039 1240.8 981.021 1299 909.5 1299 837.979 1299 780 1240.8 780 1169Z" fill="#D400D4" fill-rule="evenodd"/><path d="M1299 909.5C1299 837.979 1357.2 780 1429 780 1500.8 780 1559 837.979 1559 909.5 1559 981.021 1500.8 1039 1429 1039 1357.2 1039 1299 981.021 1299 909.5Z" fill="#00D4D4" fill-rule="evenodd"/><path d="M0 780 259.833 780 259.833 388.747C259.833 317.642 317.438 260 388.498 260L1170.5 260C1241.56 260 1299.17 317.642 1299.17 388.747L1299.17 780 1559 780 1559 127.709C1559 57.1776 1501.86 0 1431.37 0L127.628 0C57.141 0 0 57.1776 0 127.709Z" fill="#404040" fill-rule="evenodd" transform="matrix(1 0 0 -1 260 1819)"/></g></svg>